# xmcd CD database file
#
# Track frame offsets:
#	150
#	13151
#	23924
#	37695
#	51597
#	64083
#	76895
#	89077
#	102458
#	113815
#	124676
#	137503
#	150403
#	162317
#	173752
#	185982
#	197569
#	208160
#	220684
#	232510
#	244227
#	255537
#	269101
#	280012
#	291618
#	301273
#	312387
#	322482
#	334088
#
# Disc length: 4613 seconds
#
# Revision: 0
# Processed by: cddbd v1.5.2PL0 Copyright (c) Steve Scherf et al.
# Submitted via: CDex 1.51
#
DISCID=b212031d
DTITLE=Carl Smith - Let's Live A Little
DYEAR=1900
DGENRE=Country
TTITLE0=Let's Live A Little
TTITLE1=There's Nothing As Sweet As My Baby
TTITLE2=Mister Moon
TTITLE3=If Teardrops Were Pennies
TTITLE4=Guilty Conscience
TTITLE5=Washing My Dreams In Tears
TTITLE6=I Betcha My Heart I Love You
TTITLE7=I Overlooked An Orchid
TTITLE8=I Won't Be At Home
TTITLE9=Don't Just Stand There
TTITLE10=My Lonely Heart's Runnin' Wild
TTITLE11=Let Old Mother Nature Have Her Way
TTITLE12=Are You Teasing Me?
TTITLE13=It's A Lovely, Lovely World
TTITLE14=That's The Kind Of Love I'm Looking For
TTITLE15=Our Honeymoon
TTITLE16=Trademark
TTITLE17=This Orchid Means Goodbye
TTITLE18=Just Wait Till I Get You Alone
TTITLE19=Do I Like It?
TTITLE20=Hey, Joe!
TTITLE21=Satisfaction Guaranteed
TTITLE22=Dog-gone It, Baby, I'm In Love
TTITLE23=Back Up Buddy
TTITLE24=Go, Boy, Go
TTITLE25=More Than Anything Else In The World
TTITLE26=No, I Don't Belive I Will
TTITLE27=Loose Talk
TTITLE28=Kisses Don't Lie
EXTD=
EXTT0=
EXTT1=
EXTT2=
EXTT3=
EXTT4=
EXTT5=
EXTT6=
EXTT7=
EXTT8=
EXTT9=
EXTT10=
EXTT11=
EXTT12=
EXTT13=
EXTT14=
EXTT15=
EXTT16=
EXTT17=
EXTT18=
EXTT19=
EXTT20=
EXTT21=
EXTT22=
EXTT23=
EXTT24=
EXTT25=
EXTT26=
EXTT27=
EXTT28=
PLAYORDER=
